<svg width="16" height="17" viewBox="0 0 16 17" fill="none" xmlns="http://www.w3.org/2000/svg">
<path d="M6.67969 1.83789C6.32812 2.18945 6.36328 2.7168 6.67969 3.06836L10.9336 7.07617H0.84375C0.351562 7.07617 0 7.46289 0 7.91992V9.04492C0 9.53711 0.351562 9.88867 0.84375 9.88867H10.9336L6.67969 13.9316C6.36328 14.2832 6.36328 14.8105 6.67969 15.1621L7.45312 15.9355C7.80469 16.252 8.33203 16.252 8.64844 15.9355L15.5039 9.08008C15.8203 8.76367 15.8203 8.23633 15.5039 7.88477L8.64844 1.06445C8.33203 0.748047 7.80469 0.748047 7.45312 1.06445L6.67969 1.83789Z" fill="black"/>
</svg>
