<svg width="24" height="23" viewBox="0 0 24 23" fill="none" xmlns="http://www.w3.org/2000/svg">
<path d="M14.5703 11.5L21.8125 4.32812L23.2891 2.85156C23.5 2.64062 23.5 2.28906 23.2891 2.00781L21.7422 0.460938C21.4609 0.25 21.1094 0.25 20.8984 0.460938L12.25 9.17969L3.53125 0.460938C3.32031 0.25 2.96875 0.25 2.6875 0.460938L1.14062 2.00781C0.929688 2.28906 0.929688 2.64062 1.14062 2.85156L9.85938 11.5L1.14062 20.2188C0.929688 20.4297 0.929688 20.7812 1.14062 21.0625L2.6875 22.6094C2.96875 22.8203 3.32031 22.8203 3.53125 22.6094L12.25 13.8906L19.4219 21.1328L20.8984 22.6094C21.1094 22.8203 21.4609 22.8203 21.7422 22.6094L23.2891 21.0625C23.5 20.7812 23.5 20.4297 23.2891 20.2188L14.5703 11.5Z" fill="white"/>
</svg>
