<?xml version="1.0" encoding="UTF-8"?>
<svg width="40px" height="36px" viewBox="0 0 40 36" version="1.1" xmlns="http://www.w3.org/2000/svg" xmlns:xlink="http://www.w3.org/1999/xlink">
    <title>quote-left 2</title>
    <g id="Page-1" stroke="none" stroke-width="1" fill="none" fill-rule="evenodd">
        <g id="Desktop-HD" transform="translate(-295.000000, -365.000000)" fill="#C02032" fill-rule="nonzero">
            <g id="quote-left-2" transform="translate(295.000000, 365.500077)">
                <path d="M36.2499136,34.9999166 C38.3202211,34.9999166 39.9999046,33.3202331 39.9999046,31.2499255 L39.9999046,21.2499493 C39.9999046,19.1796418 38.3202211,17.4999583 36.2499136,17.4999583 L29.9999285,17.4999583 L29.9999285,12.4999702 C29.9999285,9.74217953 32.2421259,7.49998212 34.9999166,7.49998212 L35.6249151,7.49998212 C36.6639598,7.49998212 37.4999106,6.66403135 37.4999106,5.62498659 L37.4999106,1.87499553 C37.4999106,0.835950766 36.6639598,0 35.6249151,0 L34.9999166,0 C28.0936525,0 22.4999464,5.59370615 22.4999464,12.4999702 L22.4999464,31.2499255 C22.4999464,33.3202331 24.1796299,34.9999166 26.2499374,34.9999166 L36.2499136,34.9999166 Z M13.7499672,34.9999166 C15.8202748,34.9999166 17.4999583,33.3202331 17.4999583,31.2499255 L17.4999583,21.2499493 C17.4999583,19.1796418 15.8202748,17.4999583 13.7499672,17.4999583 L7.49998212,17.4999583 L7.49998212,12.4999702 C7.49998212,9.74217953 9.74217953,7.49998212 12.4999702,7.49998212 L13.1249687,7.49998212 C14.1640135,7.49998212 14.9999642,6.66403135 14.9999642,5.62498659 L14.9999642,1.87499553 C14.9999642,0.835950766 14.1640135,0 13.1249687,0 L12.4999702,0 C5.59370615,0 0,5.59370615 0,12.4999702 L0,31.2499255 C0,33.3202331 1.6796835,34.9999166 3.74999106,34.9999166 L13.7499672,34.9999166 Z" id="quote-left"></path>
            </g>
        </g>
    </g>
</svg>