<svg width="19" height="32" viewBox="0 0 19 32" fill="none" xmlns="http://www.w3.org/2000/svg">
<path d="M17.7715 22.1611L17.2793 21.5986C16.9277 21.3174 16.4355 21.3174 16.084 21.5986L10.248 27.5049V1.06738C10.248 0.645508 9.82617 0.223633 9.4043 0.223633H8.70117C8.20898 0.223633 7.85742 0.645508 7.85742 1.06738V27.5049L1.95117 21.5986C1.59961 21.3174 1.10742 21.3174 0.755859 21.5986L0.263672 22.1611C-0.0878906 22.4424 -0.0878906 23.0049 0.263672 23.2861L8.41992 31.5127C8.77148 31.8643 9.26367 31.8643 9.61523 31.5127L17.7715 23.2861C18.123 23.0049 18.123 22.4424 17.7715 22.1611Z" fill="white"/>
</svg>
