<?xml version="1.0" encoding="UTF-8"?>
<svg width="13px" height="13px" viewBox="0 0 13 13" version="1.1" xmlns="http://www.w3.org/2000/svg" xmlns:xlink="http://www.w3.org/1999/xlink">
    <title>pause 2</title>
    <g id="Page-1" stroke="none" stroke-width="1" fill="none" fill-rule="evenodd">
        <g id="Mobile" transform="translate(-127.000000, -366.000000)" fill="#FFFFFF" fill-rule="nonzero">
            <g id="pause-2" transform="translate(127.000000, 366.597683)">
                <path d="M3.93749061,12.2499708 C4.66209826,12.2499708 5.24998748,11.6620816 5.24998748,10.9374739 L5.24998748,1.31249687 C5.24998748,0.587889223 4.66209826,0 3.93749061,0 L1.31249687,0 C0.587889223,0 0,0.587889223 0,1.31249687 L0,10.9374739 C0,11.6620816 0.587889223,12.2499708 1.31249687,12.2499708 L3.93749061,12.2499708 Z M10.9374739,12.2499708 C11.6620816,12.2499708 12.2499708,11.6620816 12.2499708,10.9374739 L12.2499708,1.31249687 C12.2499708,0.587889223 11.6620816,0 10.9374739,0 L8.31248018,0 C7.58787253,0 6.99998331,0.587889223 6.99998331,1.31249687 L6.99998331,10.9374739 C6.99998331,11.6620816 7.58787253,12.2499708 8.31248018,12.2499708 L10.9374739,12.2499708 Z" id="pause"></path>
            </g>
        </g>
    </g>
</svg>