<svg width="120" height="50" viewBox="0 0 120 50" fill="none" xmlns="http://www.w3.org/2000/svg">
<path d="M83.3921 21.092C83.3623 21.3628 83.2283 21.6114 83.0184 21.7851C82.8085 21.9588 82.5393 22.044 82.2677 22.0227C81.4884 22.0227 81.0543 21.4081 81.0092 20.2548H85.294C85.318 20.0509 85.328 19.8455 85.3238 19.6402C85.3391 16.794 83.8257 15.8049 82.2379 15.8049C80.4547 15.8049 79.0018 17.0936 79.0018 19.79C79.0018 22.292 80.29 23.5956 82.2826 23.5956C83.9252 23.5956 85.1249 22.7301 85.3421 21.092H83.3921ZM82.2379 17.3783C82.852 17.3783 83.3465 17.8575 83.3614 18.8614H81.0241C81.099 17.9324 81.5484 17.3783 82.2379 17.3783ZM69.5132 21.092C69.4834 21.3628 69.3493 21.6114 69.1395 21.7851C68.9296 21.9588 68.6603 22.044 68.3887 22.0227C67.6095 22.0227 67.1754 21.4081 67.1303 20.2548H71.415C71.4391 20.0509 71.4491 19.8455 71.4448 19.6402C71.4602 16.794 69.9468 15.8049 68.359 15.8049C66.5757 15.8049 65.1228 17.0936 65.1228 19.79C65.1228 22.292 66.4111 23.5956 68.4036 23.5956C70.0463 23.5956 71.2459 22.7301 71.4632 21.092H69.5132ZM68.359 17.3783C68.9731 17.3783 69.4676 17.8575 69.4825 18.8614H67.1452C67.2201 17.9324 67.6695 17.3783 68.359 17.3783H68.359ZM76.2069 34.8191V30.9089H74.9373V29.2908H75.3081C76.072 29.2908 76.4168 29.0066 76.4168 28.2273V27.3434H78.2595V29.2909H80.0572V30.9089H78.2595V34.4898C78.2595 34.969 78.4693 35.3137 79.1435 35.3137C79.3653 35.3128 79.5863 35.2877 79.8027 35.2388V36.7671C79.3817 36.8746 78.949 36.9299 78.5145 36.9317C76.8364 36.9317 76.2069 36.018 76.2069 34.8191H76.2069ZM85.4345 34.8191V30.9089H84.1649V29.2908H84.5357C85.2996 29.2908 85.6443 29.0066 85.6443 28.2273V27.3434H87.4871V29.2909H89.2847V30.9089H87.4871V34.4898C87.4871 34.969 87.6969 35.3137 88.371 35.3137C88.5928 35.3128 88.8139 35.2877 89.0302 35.2388V36.7671C88.6092 36.8746 88.1765 36.9299 87.742 36.9317C86.0639 36.9317 85.4345 36.018 85.4345 34.8191ZM98.7037 34.8191V30.9089H97.4341V29.2908H97.8049C98.5688 29.2908 98.9136 29.0066 98.9136 28.2273V27.3434H100.756V29.2909H102.554V30.9089H100.756V34.4898C100.756 34.969 100.966 35.3137 101.64 35.3137C101.862 35.3128 102.083 35.2877 102.299 35.2388V36.7671C101.878 36.8746 101.446 36.9299 101.011 36.9317C99.3332 36.9317 98.7037 36.018 98.7037 34.8191ZM62.3394 23.4458L60.8711 19.4309H59.7025V23.4458H57.635V12.9586H61.2303C63.148 12.9586 64.2868 14.2171 64.2868 16.1045C64.2868 17.4081 63.7323 18.4269 62.7888 18.9512L64.4967 23.4458L62.3394 23.4458ZM59.7025 17.6477H60.9158C61.7551 17.6477 62.2045 17.0187 62.2045 16.1794C62.2045 15.3108 61.7397 14.7563 60.9307 14.7563H59.7025V17.6477ZM72.4416 21.0936H74.4039C74.4639 21.8128 74.8835 22.0976 75.4227 22.0976C75.887 22.0976 76.2169 21.8878 76.2169 21.4681C76.2169 20.9587 75.7973 20.734 75.1231 20.4646L74.5537 20.2548C73.64 19.9101 72.6211 19.4458 72.6211 18.0524C72.6211 16.5693 73.8349 15.8049 75.2878 15.8049C77.0557 15.8049 77.9545 16.7791 78.0448 18.1273H76.1271C76.1311 18.0167 76.112 17.9065 76.071 17.8037C76.0301 17.7009 75.9681 17.6078 75.8891 17.5303C75.8102 17.4528 75.7159 17.3926 75.6124 17.3535C75.5089 17.3144 75.3983 17.2974 75.2878 17.3034C75.1967 17.2932 75.1045 17.3029 75.0175 17.3318C74.9305 17.3606 74.8508 17.4081 74.7839 17.4707C74.717 17.5334 74.6645 17.6098 74.6299 17.6947C74.5954 17.7796 74.5797 17.871 74.5839 17.9626C74.5839 18.412 75.0031 18.5916 75.6028 18.8312L76.1569 19.041C77.0859 19.3709 78.1644 19.9552 78.1644 21.4234C78.1644 22.9364 76.9059 23.5956 75.4079 23.5956C73.4902 23.5956 72.4862 22.6368 72.4416 21.0936L72.4416 21.0936ZM92.9496 21.9026V23.4458H92.0805C91.8039 23.4775 91.5244 23.4188 91.284 23.2783C91.0437 23.1378 90.8553 22.9231 90.7472 22.6665C90.3424 23.2662 89.7134 23.5956 88.7397 23.5956C87.3161 23.5956 86.3573 22.8466 86.3573 21.4532C86.3573 19.865 87.5408 19.2657 88.7546 19.0559L90.3127 18.8163V18.3669C90.3127 17.7226 89.9982 17.3932 89.4738 17.3932C88.9193 17.3932 88.6197 17.7379 88.5746 18.3818H86.5225C86.6123 16.7637 87.6907 15.8049 89.4585 15.8049C91.0166 15.8049 92.3652 16.5241 92.3652 18.412V21.3932C92.3652 21.7231 92.5002 21.9026 92.7844 21.9026L92.9496 21.9026ZM90.3127 20.1799L89.3687 20.3446C88.9342 20.4195 88.4099 20.6293 88.4099 21.2885C88.4001 21.3913 88.4131 21.495 88.448 21.5921C88.4829 21.6893 88.5389 21.7775 88.6118 21.8505C88.6848 21.9235 88.7731 21.9794 88.8702 22.0144C88.9674 22.0493 89.071 22.0623 89.1738 22.0525C89.6832 22.0525 90.3127 21.7826 90.3127 20.8391L90.3127 20.1799ZM94.0893 15.9547H95.9619L96.1419 16.8838H96.2764C96.6509 16.2097 97.1008 15.8049 98.1643 15.8049H98.5839V17.8426C98.3655 17.8098 98.1454 17.7898 97.9247 17.7826C96.5611 17.7826 96.1419 18.9363 96.1419 20.0599V23.4458H94.0893L94.0893 15.9547ZM99.0271 19.7454C99.0271 17.2285 100.375 15.8049 102.323 15.8049C103.836 15.8049 105.259 16.6139 105.424 18.7414H103.372C103.267 17.9775 102.877 17.5579 102.323 17.5579C101.589 17.5579 101.08 18.1571 101.08 19.7454C101.08 21.2737 101.559 21.8426 102.338 21.8426C102.862 21.8426 103.252 21.5733 103.402 20.8089H105.454C105.274 22.6666 104.046 23.5956 102.353 23.5956C100.36 23.5956 99.0271 22.2623 99.0271 19.7454L99.0271 19.7454ZM112.789 18.412V23.4458H110.737V18.8312C110.737 17.9775 110.272 17.5579 109.703 17.5579C109.134 17.5579 108.595 17.9626 108.595 18.9061V23.4458H106.542V12.8088H108.595V16.7489H108.729C108.919 16.4464 109.185 16.1996 109.501 16.0338C109.817 15.8679 110.171 15.789 110.527 15.8049C111.921 15.8049 112.789 16.7791 112.789 18.412H112.789ZM59.7471 36.7815H57.635V26.2943H59.7471V36.7815ZM61.3738 29.2904H63.2463L63.4264 30.0845H63.5613C63.7504 29.782 64.0165 29.5351 64.3323 29.3693C64.6482 29.2034 65.0025 29.1245 65.3589 29.1406C66.7523 29.1406 67.6213 30.1148 67.6213 31.7477V36.7815H65.5687V32.1669C65.5687 31.3132 65.1044 30.8935 64.535 30.8935C63.9655 30.8935 63.4263 31.2983 63.4263 32.2418V36.7815H61.3738L61.3738 29.2904ZM68.63 34.4293H70.5923C70.6523 35.1485 71.0719 35.4333 71.6111 35.4333C72.0754 35.4333 72.4053 35.2234 72.4053 34.8038C72.4053 34.2944 71.9857 34.0697 71.3115 33.8003L70.7421 33.5905C69.8284 33.2458 68.8095 32.7815 68.8095 31.3881C68.8095 29.9049 70.0233 29.1406 71.4762 29.1406C73.2441 29.1406 74.1429 30.1148 74.2332 31.463H72.3155C72.3195 31.3524 72.3004 31.2422 72.2594 31.1394C72.2185 31.0366 72.1565 30.9435 72.0775 30.866C71.9986 30.7885 71.9043 30.7282 71.8008 30.6892C71.6973 30.6501 71.5867 30.6331 71.4762 30.6391C71.3851 30.6289 71.2929 30.6386 71.2059 30.6675C71.1189 30.6963 71.0392 30.7437 70.9723 30.8064C70.9054 30.8691 70.8529 30.9455 70.8183 31.0304C70.7838 31.1153 70.7681 31.2067 70.7723 31.2983C70.7723 31.7477 71.1915 31.9273 71.7912 32.1669L72.3453 32.3767C73.2743 32.7066 74.3528 33.2909 74.3528 34.7591C74.3528 36.2721 73.0943 36.9313 71.5963 36.9313C69.6786 36.9313 68.6746 35.9725 68.63 34.4293H68.63ZM80.8977 27.1634C80.9025 26.8364 81.0355 26.5244 81.2681 26.2946C81.5007 26.0648 81.8143 25.9355 82.1413 25.9347C82.302 25.9345 82.4611 25.9662 82.6094 26.0281C82.7577 26.0899 82.8923 26.1806 83.0052 26.295C83.1181 26.4093 83.2071 26.545 83.2671 26.6941C83.3271 26.8432 83.3568 27.0027 83.3546 27.1634C83.3514 27.4856 83.223 27.7939 82.9966 28.0231C82.7701 28.2523 82.4634 28.3845 82.1413 28.3916C81.8168 28.3831 81.5076 28.2514 81.2767 28.0233C81.0457 27.7952 80.9102 27.4877 80.8977 27.1634H80.8977ZM81.1075 29.2904H83.1601V36.7815H81.1075V29.2904ZM96.5247 36.7815H94.6517L94.4721 35.9873H94.3372C94.148 36.2898 93.8819 36.5367 93.566 36.7025C93.2502 36.8684 92.8959 36.9473 92.5395 36.9313C91.1462 36.9313 90.2771 35.9576 90.2771 34.3246V29.2904H92.3297V33.905C92.3297 34.7591 92.794 35.1783 93.3634 35.1783C93.9328 35.1783 94.4721 34.774 94.4721 33.8301V29.2904H96.5246L96.5247 36.7815ZM110.241 34.4293H112.203C112.263 35.1485 112.683 35.4332 113.222 35.4332C113.687 35.4332 114.016 35.2234 114.016 34.8038C114.016 34.2944 113.597 34.0697 112.923 33.8003L112.353 33.5905C111.439 33.2458 110.421 32.7814 110.421 31.3881C110.421 29.9049 111.634 29.1406 113.087 29.1406C114.855 29.1406 115.754 30.1148 115.844 31.463H113.927C113.931 31.3524 113.911 31.2422 113.871 31.1394C113.83 31.0366 113.768 30.9435 113.689 30.866C113.61 30.7885 113.515 30.7282 113.412 30.6892C113.308 30.6501 113.198 30.633 113.087 30.6391C112.996 30.6289 112.904 30.6386 112.817 30.6674C112.73 30.6963 112.65 30.7437 112.583 30.8064C112.516 30.8691 112.464 30.9455 112.429 31.0304C112.395 31.1153 112.379 31.2067 112.383 31.2983C112.383 31.7477 112.803 31.9273 113.402 32.1669L113.956 32.3767C114.885 32.7065 115.964 33.2909 115.964 34.7591C115.964 36.2721 114.705 36.9313 113.207 36.9313C111.29 36.9313 110.286 35.9725 110.241 34.4293L110.241 34.4293ZM107.518 34.4277C107.488 34.6985 107.354 34.9471 107.144 35.1208C106.934 35.2945 106.665 35.3797 106.393 35.3583C105.614 35.3583 105.18 34.7438 105.135 33.5905H109.42C109.444 33.3866 109.454 33.1812 109.449 32.9759C109.465 30.1297 107.951 29.1406 106.363 29.1406C104.58 29.1406 103.127 30.4293 103.127 33.1257C103.127 35.6277 104.416 36.9313 106.408 36.9313C108.051 36.9313 109.25 36.0657 109.468 34.4277H107.518ZM106.363 30.714C106.978 30.714 107.472 31.1932 107.487 32.1971H105.15C105.225 31.2681 105.674 30.714 106.363 30.714ZM24.9503 0C20.0156 0 15.1917 1.46332 11.0886 4.20491C6.9855 6.94649 3.78754 10.8432 1.8991 15.4023C0.0106579 19.9614 -0.483444 24.9781 0.479274 29.818C1.44199 34.6579 3.81829 39.1037 7.30767 42.5931C10.7971 46.0824 15.2428 48.4587 20.0827 49.4215C24.9226 50.3842 29.9393 49.8901 34.4984 48.0016C39.0575 46.1132 42.9542 42.9152 45.6958 38.8122C48.4374 34.7091 49.9007 29.8852 49.9007 24.9504C49.9007 18.3332 47.272 11.9869 42.5929 7.30781C37.9138 2.6287 31.5676 0 24.9503 0ZM24.9503 42.2503C21.5287 42.2503 18.184 41.2357 15.3391 39.3348C12.4941 37.4338 10.2768 34.732 8.9674 31.5709C7.65802 28.4098 7.31542 24.9314 7.98293 21.5755C8.65044 18.2197 10.2981 15.1372 12.7175 12.7178C15.1369 10.2983 18.2194 8.6507 21.5752 7.98317C24.931 7.31565 28.4094 7.65823 31.5706 8.96759C34.7317 10.277 37.4335 12.4943 39.3345 15.3392C41.2354 18.1841 42.25 21.5289 42.2501 24.9504C42.2501 29.5386 40.4274 33.9389 37.1831 37.1832C33.9387 40.4276 29.5385 42.2503 24.9503 42.2503ZM14.1275 13.0986H18.173V26.1303C18.173 26.9588 18.4263 27.6719 19.5779 27.6719C20.6384 27.6719 20.9615 26.7509 20.9615 26.015V13.0986H25.0056V25.6008C25.0056 28.5246 23.696 30.7822 19.5552 30.7822C16.1275 30.7822 14.1275 29.1466 14.1275 25.6008V13.0986H14.1275ZM26.5984 36.6269H35.5947V33.1636H30.6424V19.3447H26.5984V36.6269" fill="white"/>
</svg>
